# xmcd
#
# Track frame offsets: 
#        150
#        54288
#        68675
#        98738
#        120413
#        140688
#        165738
#        184650
#        196538
#        235538
#
# Disc length: 3366 seconds
#
# Revision: 2
# Processed by: cddbd v1.5.2PL0 Copyright (c) Steve Scherf et al.
# Submitted via: ExactAudioCopyFreeDBPlugin 1.0
#
DISCID=760d240a
DTITLE=香港愛樂民樂團 - 東海漁歌
DYEAR=1992
DGENRE=Classical
TTITLE0=東海漁歌
TTITLE1=彩雲追月
TTITLE2=將軍令
TTITLE3=故鄉行
TTITLE4=弓舞
TTITLE5=夕陽歸帆
TTITLE6=賽龍奪錦
TTITLE7=喜洋洋
TTITLE8=玄舞湖之春
TTITLE9=幸福年
EXTD=
EXTT0=
EXTT1=
EXTT2=
EXTT3=
EXTT4=
EXTT5=
EXTT6=
EXTT7=
EXTT8=
EXTT9=
PLAYORDER=
